# xmcd
#
# Track frame offsets:
# 150
# 27163
# 68767
# 102010
# 133503
# 165385
# 196905
# 227087
#
# Disc length: 3351 seconds
#
# Revision: 0
# Processed by: cddbd v1.4PL0 Copyright (c) Steve Scherf et al.
# Submitted via: Audion 3.0.2 (http://www.panic.com/audion/)
#
DISCID=5b0d1508
DTITLE=Louie Giglio - Boy Meets Girl
DYEAR=1900
DGENRE=
TTITLE0=Still Dating Dad - I
TTITLE1=Still Dating Dad - II
TTITLE2=Still Dating Dad - III
TTITLE3=Still Dating Dad - IV
TTITLE4=Still Dating Dad - V
TTITLE5=Still Dating Dad - VI
TTITLE6=Still Dating Dad - VII
TTITLE7=Still Dating Dad - VIII
EXTD=
EXTT0=
EXTT1=
EXTT2=
EXTT3=
EXTT4=
EXTT5=
EXTT6=
EXTT7=
PLAYORDER=
